# xmcd
#
# Track frame offsets: 
#        150
#        1827
#        31407
#        70211
#        81733
#        96544
#        119578
#        136449
#        157054
#        178254
#        190113
#        202553
#        215256
#        222888
#        237591
#        259538
#        270454
#        276597
#        282090
#
# Disc length: 3956 seconds
#
# Revision: 0
# Processed by: cddbd v1.5.2PL0 Copyright (c) Steve Scherf et al.
# Submitted via: ExactAudioCopy v0.99pb3
#
DISCID=240f7213
DTITLE=Bill Conn - Collected Verse Banjo Paterson
DYEAR=2009
DGENRE=Speech
TTITLE0=Introduction
TTITLE1=The Man From Snowy River
TTITLE2=Old Pardon
TTITLE3=Clancy of the Overflow
TTITLE4=The Geebung Polo Club
TTITLE5=Saltbush Bill
TTITLE6=The Man From Ironbark
TTITLE7=On Kileys Run
TTITLE8=In the Droving Days
TTITLE9=A Bushmans Song
TTITLE10=A Bush Christening
TTITLE11=How the Favourite Beat Us
TTITLE12=Daylight is Dying
TTITLE13=Mulga Bills Bicycle
TTITLE14=The Pearl Diver
TTITLE15=Hay and Hell and Booligal
TTITLE16=Waltzing Matilda
TTITLE17=As Long As Your Eyes Are Blue
TTITLE18=An Evening in Dandaloo
EXTD=
EXTT0=
EXTT1=
EXTT2=
EXTT3=
EXTT4=
EXTT5=
EXTT6=
EXTT7=
EXTT8=
EXTT9=
EXTT10=
EXTT11=
EXTT12=
EXTT13=
EXTT14=
EXTT15=
EXTT16=
EXTT17=
EXTT18=
PLAYORDER=
